<svg width="25" height="29" fill="none" xmlns="http://www.w3.org/2000/svg"><path d="M21.99.5c1.624 0 2.933 1.327 3.01 2.888V28.5l-3.09-2.652-1.697-1.56-1.851-1.632.773 2.573H2.932C1.314 25.229 0 23.986 0 22.34V3.393C0 1.833 1.316.503 2.938.503h19.045L21.99.5zm-7.06 6.63h-.035l-.234.234c2.393.7 3.55 1.793 3.55 1.793-1.541-.78-2.931-1.17-4.32-1.327-1.005-.157-2.01-.075-2.857 0h-.231c-.543 0-1.697.233-3.244.858-.539.236-.848.392-.848.392s1.156-1.17 3.705-1.793l-.156-.158s-1.93-.075-4.013 1.482c0 0-2.084 3.668-2.084 8.19 0 0 1.155 2.03 4.32 2.107 0 0 .462-.622.93-1.17-1.778-.545-2.47-1.637-2.47-1.637s.155.077.387.233h.069c.034 0 .05.018.069.035v.007c.019.019.035.035.07.035.38.159.761.315 1.073.467.538.235 1.229.47 2.077.625 1.074.157 2.304.233 3.706 0 .692-.157 1.385-.311 2.077-.624.45-.234 1.004-.467 1.613-.86 0 0-.693 1.092-2.545 1.638.38.544.917 1.167.917 1.167 3.168-.07 4.398-2.1 4.467-2.014 0-4.515-2.095-8.19-2.095-8.19-1.887-1.416-3.653-1.47-3.965-1.47l.065-.023.001.003zm.193 5.149c.812 0 1.466.7 1.466 1.557 0 .864-.658 1.563-1.466 1.563-.808 0-1.466-.7-1.466-1.556.002-.863.662-1.56 1.466-1.56v-.004zm-5.244 0c.808 0 1.462.7 1.462 1.557 0 .864-.658 1.563-1.466 1.563-.808 0-1.466-.7-1.466-1.556 0-.863.658-1.56 1.466-1.56l.004-.004z" fill="#F4DEFF"/></svg>