<svg width="25" height="25" fill="none" xmlns="http://www.w3.org/2000/svg"><path d="M22.222 0H2.778A2.777 2.777 0 000 2.778v19.444A2.777 2.777 0 002.778 25h19.444A2.777 2.777 0 0025 22.222V2.778A2.777 2.777 0 0022.222 0zm-1.518 17.617l-2.41.033s-.519.101-1.2-.368c-.9-.62-1.75-2.23-2.413-2.02-.673.213-.652 1.663-.652 1.663s.006.256-.148.422c-.167.18-.494.161-.494.161h-1.079s-2.38.198-4.479-1.99c-2.286-2.385-4.305-7.092-4.305-7.092s-.118-.297.008-.448c.143-.168.53-.172.53-.172l2.578-.013s.243.043.418.17a.822.822 0 01.225.305s.417 1.057.97 2.014c1.078 1.865 1.579 2.274 1.944 2.074.534-.292.374-2.637.374-2.637s.01-.85-.268-1.23c-.217-.296-.624-.383-.803-.406-.146-.02.092-.357.401-.51.464-.226 1.285-.24 2.253-.23.754.008.972.054 1.267.126.89.216.587 1.046.587 3.04 0 .638-.115 1.535.345 1.831.198.128.682.02 1.889-2.036.573-.975 1.002-2.12 1.002-2.12s.095-.205.24-.292c.15-.09.352-.063.352-.063l2.715-.016s.816-.1.949.272c.139.387-.304 1.291-1.414 2.77-1.82 2.431-2.023 2.205-.511 3.61 1.444 1.343 1.743 1.996 1.793 2.078.597.995-.664 1.074-.664 1.074z" fill="#F4DEFF"/></svg>