<svg width="34" height="54" viewBox="0 0 34 54" fill="none" xmlns="http://www.w3.org/2000/svg">
<path fill-rule="evenodd" clip-rule="evenodd" d="M17 0.75C17.4973 0.75 17.9742 0.947544 18.3259 1.29917C18.6775 1.65081 18.875 2.12772 18.875 2.625V46.8488L30.6725 35.0475C31.0246 34.6954 31.5021 34.4976 32 34.4976C32.498 34.4976 32.9755 34.6954 33.3275 35.0475C33.6796 35.3996 33.8774 35.8771 33.8774 36.375C33.8774 36.8729 33.6796 37.3504 33.3275 37.7025L18.3275 52.7025C18.1534 52.8771 17.9465 53.0156 17.7187 53.1102C17.4909 53.2047 17.2467 53.2533 17 53.2533C16.7534 53.2533 16.5092 53.2047 16.2814 53.1102C16.0536 53.0156 15.8467 52.8771 15.6725 52.7025L0.672549 37.7025C0.320474 37.3504 0.122681 36.8729 0.122681 36.375C0.122681 35.8771 0.320474 35.3996 0.672549 35.0475C1.02462 34.6954 1.50214 34.4976 2.00005 34.4976C2.49796 34.4976 2.97547 34.6954 3.32755 35.0475L15.125 46.8488V2.625C15.125 2.12772 15.3226 1.65081 15.6742 1.29917C16.0259 0.947544 16.5028 0.75 17 0.75Z" fill="url(#paint0_linear_66_170)"/>
<defs>
<linearGradient id="paint0_linear_66_170" x1="17" y1="0.75" x2="17" y2="53.2533" gradientUnits="userSpaceOnUse">
<stop stop-color="#FF0087"/>
<stop offset="1" stop-color="#761594"/>
</linearGradient>
</defs>
</svg>
